<svg xmlns="http://www.w3.org/2000/svg" viewBox="0 0 64 64">
  <defs>
    <linearGradient id="g" x1="0" y1="0" x2="1" y2="1">
      <stop offset="0%" stop-color="#2D7FF9"/>
      <stop offset="100%" stop-color="#7C5CFC"/>
    </linearGradient>
  </defs>
  <rect width="64" height="64" rx="14" fill="url(#g)"/>
  <path d="M18 46V18h11.4c3.4 0 6.1.9 8 2.7 1.9 1.7 2.9 4.1 2.9 7.1s-1 5.4-2.9 7.2c-1.9 1.7-4.6 2.6-8 2.6H24v8.4zm6-13.9h5c1.7 0 3-.4 3.9-1.3.9-.9 1.4-2 1.4-3.4s-.5-2.5-1.4-3.3c-.9-.8-2.2-1.2-3.9-1.2h-5z" fill="#fff"/>
</svg>
